<svg version="1.0" xmlns="http://www.w3.org/2000/svg" width="682" height="682" viewBox="0 0 1024.000000 1024.000000" preserveAspectRatio="xMidYMid meet">

<g transform="translate(0.000000,1024.000000) scale(0.100000,-0.100000)" fill="#000000" stroke="none">
<path d="M5094 6748 c-66 -43 -166 -145 -187 -190 -21 -45 -22 -80 -1 -124 18
-38 58 -64 97 -64 14 0 52 18 85 40 33 22 66 40 73 40 8 0 43 -18 79 -40 36
-22 73 -40 83 -40 27 0 74 27 91 52 22 31 20 101 -4 149 -36 70 -198 209 -244
209 -13 0 -45 -14 -72 -32z"></path>
<path d="M4152 6219 c-150 -19 -157 -30 -157 -218 0 -176 19 -217 103 -228 74
-10 132 47 132 131 0 42 28 76 63 76 12 0 41 9 64 20 79 36 96 131 32 184 -52
44 -107 52 -237 35z"></path>
<path d="M6003 6220 c-142 -34 -146 -213 -4 -235 65 -11 79 -21 86 -62 11 -70
25 -110 44 -127 28 -26 91 -32 129 -12 50 26 64 66 70 196 5 124 -7 194 -36
209 -49 25 -233 45 -289 31z"></path>
<path d="M5140 6194 c-89 -31 -90 -35 -90 -353 l0 -271 29 -32 c26 -29 35 -33
80 -33 44 0 55 4 83 33 l33 32 3 259 c3 280 -1 313 -50 345 -28 18 -67 27 -88
20z"></path>
<path d="M4478 5777 c-23 -6 -38 -18 -42 -31 -11 -39 -6 -117 8 -144 8 -15 86
-98 174 -184 194 -192 196 -193 285 -99 88 92 89 91 -100 283 -87 88 -170 166
-185 174 -31 16 -86 16 -140 1z"></path>
<path d="M5533 5617 c-206 -205 -205 -203 -122 -298 45 -52 55 -59 87 -59 34
1 50 14 209 170 186 183 197 201 173 274 -18 55 -62 86 -122 86 l-51 0 -174
-173z"></path>
<path d="M3804 5361 c-59 -27 -166 -167 -166 -218 0 -47 120 -194 179 -219 80
-34 172 1 194 74 10 33 8 45 -12 91 -20 47 -21 57 -10 85 34 83 35 93 14 132
-36 69 -118 92 -199 55z"></path>
<path d="M6375 5368 c-72 -39 -88 -90 -55 -171 l22 -53 -21 -42 c-36 -71 -24
-128 38 -169 48 -32 105 -31 162 5 44 29 113 109 143 170 16 32 16 35 -3 75
-31 64 -112 160 -151 179 -39 20 -105 23 -135 6z"></path>
<path d="M4785 5020 c-36 -15 -343 -333 -350 -363 -27 -107 79 -202 171 -154
16 9 102 89 192 179 148 150 162 167 162 200 0 30 -9 43 -59 91 -59 56 -77 64
-116 47z"></path>
<path d="M5419 4973 c-52 -49 -59 -61 -59 -94 0 -36 10 -48 153 -194 83 -86
166 -165 183 -176 66 -41 143 -15 176 58 36 81 27 96 -150 275 -152 154 -193
188 -227 188 -9 0 -43 -25 -76 -57z"></path>
<path d="M5079 4731 l-29 -29 0 -264 c0 -279 1 -287 50 -325 22 -18 101 -16
129 3 45 32 51 66 51 314 0 248 -6 282 -51 314 -14 9 -43 16 -72 16 -40 0 -53
-5 -78 -29z"></path>
<path d="M4071 4513 c-65 -34 -75 -58 -79 -202 -5 -156 5 -197 53 -217 45 -19
209 -36 263 -28 153 23 161 215 9 239 -65 11 -87 29 -88 73 -1 110 -79 176
-158 135z"></path>
<path d="M6159 4512 c-40 -20 -69 -72 -69 -122 0 -52 -21 -76 -75 -83 -60 -9
-90 -30 -110 -79 -20 -50 -8 -96 36 -132 39 -33 97 -40 209 -27 123 15 155 29
170 76 18 55 9 270 -13 312 -32 60 -93 82 -148 55z"></path>
<path d="M4953 3910 c-31 -13 -63 -68 -63 -108 0 -19 8 -50 17 -70 33 -70 206
-222 254 -222 28 0 134 77 190 138 60 66 79 105 79 163 0 33 -6 47 -34 75 -51
51 -93 46 -192 -21 -20 -14 -40 -25 -44 -25 -4 0 -34 18 -66 40 -60 41 -96 48
-141 30z"></path>
</g>
</svg>