<svg xmlns="http://www.w3.org/2000/svg" version="1.1" width="517px" height="416px" style="shape-rendering:geometricPrecision; text-rendering:geometricPrecision; image-rendering:optimizeQuality; fill-rule:evenodd; clip-rule:evenodd" xmlns:xlink="http://www.w3.org/1999/xlink">
<g></g>
<g><path style="opacity: 1; visibility: visible;" fill="#fbfbfb" d="M 52.5,278.5 C 52.4484,269.482 52.7817,260.482 53.5,251.5C 53.9035,245.553 55.4035,239.887 58,234.5C 62.4155,226.667 67.0822,219 72,211.5C 88.6667,189.5 105.333,167.5 122,145.5C 130.889,134.478 141.723,125.978 154.5,120C 170.022,116.231 185.355,116.898 200.5,122C 214.682,128.924 229.016,135.59 243.5,142C 250.502,143.379 257.002,142.212 263,138.5C 279.186,106.313 300.02,77.4797 325.5,52C 338.623,41.9289 349.79,43.7622 359,57.5C 373.403,75.2958 386.07,94.2958 397,114.5C 422.747,160.921 442.913,209.587 457.5,260.5C 456.459,270.794 452.959,280.127 447,288.5C 432.128,307.705 414.962,324.539 395.5,339C 346.506,366.228 303.006,359.395 265,318.5C 257.799,309.265 250.966,299.765 244.5,290C 237.927,286.449 231.594,286.782 225.5,291C 212.571,306.599 198.905,321.599 184.5,336C 159.971,354.589 132.971,359.255 103.5,350C 73.8588,335.191 56.8588,311.358 52.5,278.5 Z" data-index="1"></path></g>
<g><path style="opacity: 1; visibility: visible; fill: rgb(121, 40, 202);" fill="#081525" d="M 341.5,122.5 C 348.435,122.91 352.935,126.577 355,133.5C 368.138,166.58 381.471,199.58 395,232.5C 399.118,242.764 398.118,252.431 392,261.5C 385.833,267.667 379.667,273.833 373.5,280C 346.41,299.881 322.91,296.381 303,269.5C 300.323,264.823 298.823,259.823 298.5,254.5C 305.899,212.133 318.065,171.133 335,131.5C 337.176,128.471 339.343,125.471 341.5,122.5 Z" data-index="2"></path></g>
<g><path style="opacity: 1; visibility: visible; fill: rgb(121, 40, 202);" fill="#071524" d="M 172.5,180.5 C 178.037,180.087 183.37,180.92 188.5,183C 200.251,188.14 211.918,193.473 223.5,199C 233.308,200.073 242.308,197.906 250.5,192.5C 250.833,193 251.167,193.5 251.5,194C 248.156,204.39 244.823,214.723 241.5,225C 220.2,220.936 202.366,226.769 188,242.5C 175.876,257.626 163.376,272.46 150.5,287C 134.918,296.737 122.418,293.904 113,278.5C 109.299,268.844 109.966,259.51 115,250.5C 131.883,229.285 148.383,207.785 164.5,186C 167.407,184.391 170.073,182.558 172.5,180.5 Z" data-index="3"></path></g>
<g><path style="opacity:1" fill="#9199a0" d="M 53.5,251.5 C 52.7817,260.482 52.4484,269.482 52.5,278.5C 51.8346,275.016 51.5013,271.349 51.5,267.5C 51.3182,261.914 51.9848,256.58 53.5,251.5 Z" data-index="4"></path></g>
</svg>